<svg xmlns="http://www.w3.org/2000/svg" width="2100" height="5176" viewBox="0 0 2100 5176"><title>龚博士科研工作台功能使用流程 · 2026-10-01</title><desc>首次设置、任务接续、研究任务、文献资料、科研日报、自动化、PPT、组会、机制图、归档与恢复的图解说明书。</desc><rect width="100%" height="100%" fill="#F7F7F3"/><text x="86" y="80.6" fill="#7464CC" font-size="26" font-weight="600" font-family="Heiti SC,Microsoft YaHei,Noto Sans CJK SC,sans-serif">龚博士科研工作台  /  图解使用说明</text><text x="86" y="175.1" fill="#223347" font-size="76" font-weight="600" font-family="Heiti SC,Microsoft YaHei,Noto Sans CJK SC,sans-serif">每个功能，怎么用</text><text x="89" y="240.0" fill="#667588" font-size="31" font-weight="400" font-family="Heiti SC,Microsoft YaHei,Noto Sans CJK SC,sans-serif">按顺序点、按需要填。先找到工作入口，再带着材料进入 Codex。</text><rect x="1642" y="64" width="372" height="57" rx="28" fill="#EEEAF9" stroke="#EEEAF9" stroke-width="2"/><text x="1670" y="104.6" fill="#7464CC" font-size="26" font-weight="600" font-family="Heiti SC,Microsoft YaHei,Noto Sans CJK SC,sans-serif">2026.10.01 · 更新稿</text><text x="86" y="303.2" fill="#223347" font-size="29" font-weight="600" font-family="Heiti SC,Microsoft YaHei,Noto Sans CJK SC,sans-serif">工作区域：今天  /  研究任务  /  文献资料  /  汇报制图  /  设置</text><rect x="86" y="350" width="58" height="58" rx="16" fill="#7464CC" stroke="#7464CC" stroke-width="2"/><text x="99" y="389.1" fill="#FFFFFF" font-size="30" font-weight="600" font-family="Heiti SC,Microsoft YaHei,Noto Sans CJK SC,sans-serif">01</text><text x="163" y="395.4" fill="#223347" font-size="43" font-weight="600" font-family="Heiti SC,Microsoft YaHei,Noto Sans CJK SC,sans-serif">首次使用：把常用位置设置好</text><text x="163" y="435.8" fill="#667588" font-size="25" font-weight="400" font-family="Heiti SC,Microsoft YaHei,Noto Sans CJK SC,sans-serif">以后路径没有变化，桌面版会自动核对并恢复知识库原授权。</text><rect x="86" y="462" width="464" height="241" rx="20" fill="#FFFFFF" stroke="#E0E3E6" stroke-width="2"/><text x="108" y="509.1" fill="#223347" font-size="30" font-weight="600" font-family="Heiti SC,Microsoft YaHei,Noto Sans CJK SC,sans-serif">知识库与授权</text><text x="108" y="560.6" fill="#223347" font-size="26" font-weight="400" font-family="Heiti SC,Microsoft YaHei,Noto Sans CJK SC,sans-serif">选择 GY 所在文件夹</text><text x="108" y="598.6" fill="#223347" font-size="26" font-weight="400" font-family="Heiti SC,Microsoft YaHei,Noto Sans CJK SC,sans-serif">勾选所需范围并确认连接</text><text x="108" y="647.0" fill="#667588" font-size="23" font-weight="400" font-family="Heiti SC,Microsoft YaHei,Noto Sans CJK SC,sans-serif">旧笔记不显示：关联现有文件夹；</text><text x="108" y="681.0" fill="#667588" font-size="23" font-weight="400" font-family="Heiti SC,Microsoft YaHei,Noto Sans CJK SC,sans-serif">缺标准目录：检查结构后确认补齐。</text><rect x="574" y="462" width="464" height="241" rx="20" fill="#FFFFFF" stroke="#E0E3E6" stroke-width="2"/><text x="596" y="509.1" fill="#223347" font-size="30" font-weight="600" font-family="Heiti SC,Microsoft YaHei,Noto Sans CJK SC,sans-serif">Codex 工作区</text><text x="596" y="560.6" fill="#223347" font-size="26" font-weight="400" font-family="Heiti SC,Microsoft YaHei,Noto Sans CJK SC,sans-serif">打开设置 → Codex 工作区</text><text x="596" y="598.6" fill="#223347" font-size="26" font-weight="400" font-family="Heiti SC,Microsoft YaHei,Noto Sans CJK SC,sans-serif">选择默认工作区</text><text x="596" y="647.0" fill="#667588" font-size="23" font-weight="400" font-family="Heiti SC,Microsoft YaHei,Noto Sans CJK SC,sans-serif">本机须已安装并登录 Codex；</text><text x="596" y="681.0" fill="#667588" font-size="23" font-weight="400" font-family="Heiti SC,Microsoft YaHei,Noto Sans CJK SC,sans-serif">新任务可临时更换工作区。</text><rect x="1062" y="462" width="464" height="241" rx="20" fill="#FFFFFF" stroke="#E0E3E6" stroke-width="2"/><text x="1084" y="509.1" fill="#223347" font-size="30" font-weight="600" font-family="Heiti SC,Microsoft YaHei,Noto Sans CJK SC,sans-serif">Jev API Key · 可选</text><text x="1084" y="560.6" fill="#223347" font-size="26" font-weight="400" font-family="Heiti SC,Microsoft YaHei,Noto Sans CJK SC,sans-serif">设置 → Jev API Key</text><text x="1084" y="598.6" fill="#223347" font-size="26" font-weight="400" font-family="Heiti SC,Microsoft YaHei,Noto Sans CJK SC,sans-serif">输入密钥 → 保存并验证</text><text x="1084" y="647.0" fill="#667588" font-size="23" font-weight="400" font-family="Heiti SC,Microsoft YaHei,Noto Sans CJK SC,sans-serif">绿灯：上次验证成功。</text><text x="1084" y="681.0" fill="#667588" font-size="23" font-weight="400" font-family="Heiti SC,Microsoft YaHei,Noto Sans CJK SC,sans-serif">红灯：未验证成功，可重新验证。</text><rect x="1550" y="462" width="464" height="241" rx="20" fill="#FFFFFF" stroke="#E0E3E6" stroke-width="2"/><text x="1572" y="509.1" fill="#223347" font-size="30" font-weight="600" font-family="Heiti SC,Microsoft YaHei,Noto Sans CJK SC,sans-serif">日报输出位置</text><text x="1572" y="560.6" fill="#223347" font-size="26" font-weight="400" font-family="Heiti SC,Microsoft YaHei,Noto Sans CJK SC,sans-serif">文献资料 → 科研日报</text><text x="1572" y="598.6" fill="#223347" font-size="26" font-weight="400" font-family="Heiti SC,Microsoft YaHei,Noto Sans CJK SC,sans-serif">选择日报文件夹</text><text x="1572" y="647.0" fill="#667588" font-size="23" font-weight="400" font-family="Heiti SC,Microsoft YaHei,Noto Sans CJK SC,sans-serif">在 Codex 中确认同一输出目录；</text><text x="1572" y="681.0" fill="#667588" font-size="23" font-weight="400" font-family="Heiti SC,Microsoft YaHei,Noto Sans CJK SC,sans-serif">暂不连接也可导入单份 HTML / JSON。</text><text x="100" y="742.9" fill="#667588" font-size="24" font-weight="400" font-family="Heiti SC,Microsoft YaHei,Noto Sans CJK SC,sans-serif">授权只在更换知识库或关联目录变化时重新核对；不要每天点“断开并清除本机授权”。</text><rect x="86" y="784" width="58" height="58" rx="16" fill="#7464CC" stroke="#7464CC" stroke-width="2"/><text x="99" y="823.1" fill="#FFFFFF" font-size="30" font-weight="600" font-family="Heiti SC,Microsoft YaHei,Noto Sans CJK SC,sans-serif">02</text><text x="163" y="829.4" fill="#223347" font-size="43" font-weight="600" font-family="Heiti SC,Microsoft YaHei,Noto Sans CJK SC,sans-serif">日常开始：接着做，或开一项新工作</text><text x="163" y="869.8" fill="#667588" font-size="25" font-weight="400" font-family="Heiti SC,Microsoft YaHei,Noto Sans CJK SC,sans-serif">从桌面图标打开；最近任务、草稿与当前页面会在本机恢复。</text><rect x="86" y="896" width="946" height="116" rx="20" fill="#EEEAF9" stroke="#EEEAF9" stroke-width="2"/><text x="110" y="941.0" fill="#7464CC" font-size="31" font-weight="600" font-family="Heiti SC,Microsoft YaHei,Noto Sans CJK SC,sans-serif">接着做</text><text x="110" y="983.8" fill="#223347" font-size="25" font-weight="400" font-family="Heiti SC,Microsoft YaHei,Noto Sans CJK SC,sans-serif">今天 → 继续上次工作；或 研究任务 → 点击已有任务卡</text><rect x="1060" y="896" width="954" height="116" rx="20" fill="#FFFFFF" stroke="#E0E3E6" stroke-width="2"/><text x="1084" y="941.0" fill="#223347" font-size="31" font-weight="600" font-family="Heiti SC,Microsoft YaHei,Noto Sans CJK SC,sans-serif">开始新任务</text><text x="1084" y="983.8" fill="#223347" font-size="25" font-weight="400" font-family="Heiti SC,Microsoft YaHei,Noto Sans CJK SC,sans-serif">今天 → 写下问题 → 开始梳理；或选择下面的功能入口</text><text x="86" y="1071.0" fill="#223347" font-size="31" font-weight="600" font-family="Heiti SC,Microsoft YaHei,Noto Sans CJK SC,sans-serif">所有“启动语”功能，都走这条交接流程</text><rect x="86" y="1099" width="369" height="131" rx="16" fill="#FFFFFF" stroke="#E0E3E6" stroke-width="2"/><text x="106" y="1139.4" fill="#223347" font-size="28" font-weight="600" font-family="Heiti SC,Microsoft YaHei,Noto Sans CJK SC,sans-serif">填写本次需求</text><text x="106" y="1179.9" fill="#667588" font-size="24" font-weight="400" font-family="Heiti SC,Microsoft YaHei,Noto Sans CJK SC,sans-serif">写目标、已知事实与材料</text><path d="M458,1164 H466 M454,1156 L466,1164 L454,1172" stroke="#7464CC" stroke-width="3" fill="none"/><rect x="475" y="1099" width="369" height="131" rx="16" fill="#FFFFFF" stroke="#E0E3E6" stroke-width="2"/><text x="495" y="1139.4" fill="#223347" font-size="28" font-weight="600" font-family="Heiti SC,Microsoft YaHei,Noto Sans CJK SC,sans-serif">检查启动语</text><text x="495" y="1179.9" fill="#667588" font-size="24" font-weight="400" font-family="Heiti SC,Microsoft YaHei,Noto Sans CJK SC,sans-serif">核对本次要做什么</text><path d="M847,1164 H855 M843,1156 L855,1164 L843,1172" stroke="#7464CC" stroke-width="3" fill="none"/><rect x="864" y="1099" width="369" height="131" rx="16" fill="#FFFFFF" stroke="#E0E3E6" stroke-width="2"/><text x="884" y="1139.4" fill="#223347" font-size="28" font-weight="600" font-family="Heiti SC,Microsoft YaHei,Noto Sans CJK SC,sans-serif">进入 Codex 对话</text><text x="884" y="1179.9" fill="#667588" font-size="24" font-weight="400" font-family="Heiti SC,Microsoft YaHei,Noto Sans CJK SC,sans-serif">继续原对话并复制启动语</text><text x="884" y="1212.9" fill="#667588" font-size="24" font-weight="400" font-family="Heiti SC,Microsoft YaHei,Noto Sans CJK SC,sans-serif">或选工作区创建新对话</text><path d="M1236,1164 H1244 M1232,1156 L1244,1164 L1232,1172" stroke="#7464CC" stroke-width="3" fill="none"/><rect x="1253" y="1099" width="369" height="131" rx="16" fill="#F0EDFA" stroke="#E0E3E6" stroke-width="2"/><text x="1273" y="1139.4" fill="#223347" font-size="28" font-weight="600" font-family="Heiti SC,Microsoft YaHei,Noto Sans CJK SC,sans-serif">粘贴并提交</text><text x="1273" y="1179.9" fill="#667588" font-size="24" font-weight="400" font-family="Heiti SC,Microsoft YaHei,Noto Sans CJK SC,sans-serif">Windows 按 Ctrl+V，再发送</text><path d="M1625,1164 H1633 M1621,1156 L1633,1164 L1621,1172" stroke="#7464CC" stroke-width="3" fill="none"/><rect x="1642" y="1099" width="369" height="131" rx="16" fill="#FFFFFF" stroke="#E0E3E6" stroke-width="2"/><text x="1662" y="1139.4" fill="#223347" font-size="28" font-weight="600" font-family="Heiti SC,Microsoft YaHei,Noto Sans CJK SC,sans-serif">回任务查看成果</text><text x="1662" y="1179.9" fill="#667588" font-size="24" font-weight="400" font-family="Heiti SC,Microsoft YaHei,Noto Sans CJK SC,sans-serif">预览结果，记录意见与下一步</text><text x="100" y="1271.9" fill="#667588" font-size="24" font-weight="400" font-family="Heiti SC,Microsoft YaHei,Noto Sans CJK SC,sans-serif">工作台“添加文件”只记录文件名；实际稿件、图片和数据，还需在 Codex 中附上或指定获授权路径。</text><rect x="86" y="1312" width="58" height="58" rx="16" fill="#7464CC" stroke="#7464CC" stroke-width="2"/><text x="99" y="1351.1" fill="#FFFFFF" font-size="30" font-weight="600" font-family="Heiti SC,Microsoft YaHei,Noto Sans CJK SC,sans-serif">03</text><text x="163" y="1357.4" fill="#223347" font-size="43" font-weight="600" font-family="Heiti SC,Microsoft YaHei,Noto Sans CJK SC,sans-serif">研究任务：梳理问题、写作与修稿</text><text x="163" y="1397.8" fill="#667588" font-size="25" font-weight="400" font-family="Heiti SC,Microsoft YaHei,Noto Sans CJK SC,sans-serif">同一种工作可以建多张任务卡；每张任务各自保存，已有任务优先接续。</text><rect x="86" y="1424" width="1928" height="182" rx="22" fill="#FFFFFF" stroke="#E0E3E6" stroke-width="2"/><text x="114" y="1473.8" fill="#223347" font-size="32" font-weight="600" font-family="Heiti SC,Microsoft YaHei,Noto Sans CJK SC,sans-serif">梳理选题</text><text x="114" y="1521.0" fill="#7464CC" font-size="23" font-weight="400" font-family="Heiti SC,Microsoft YaHei,Noto Sans CJK SC,sans-serif">研究任务 → 梳理选题</text><rect x="460" y="1442" width="477" height="128" rx="16" fill="#FAFAFC" stroke="#E0E3E6" stroke-width="2"/><text x="480" y="1482.4" fill="#223347" font-size="28" font-weight="600" font-family="Heiti SC,Microsoft YaHei,Noto Sans CJK SC,sans-serif">写下研究困惑</text><text x="480" y="1522.9" fill="#667588" font-size="24" font-weight="400" font-family="Heiti SC,Microsoft YaHei,Noto Sans CJK SC,sans-serif">补充现象、已有证据与现实条件</text><path d="M941,1506 H956 M944,1498 L956,1506 L944,1514" stroke="#7464CC" stroke-width="3" fill="none"/><rect x="965" y="1442" width="477" height="128" rx="16" fill="#FAFAFC" stroke="#E0E3E6" stroke-width="2"/><text x="985" y="1482.4" fill="#223347" font-size="28" font-weight="600" font-family="Heiti SC,Microsoft YaHei,Noto Sans CJK SC,sans-serif">开始梳理选题</text><text x="985" y="1522.9" fill="#667588" font-size="24" font-weight="400" font-family="Heiti SC,Microsoft YaHei,Noto Sans CJK SC,sans-serif">先让问题、不同解释和缺口清楚</text><path d="M1446,1506 H1461 M1449,1498 L1461,1506 L1449,1514" stroke="#7464CC" stroke-width="3" fill="none"/><rect x="1470" y="1442" width="477" height="128" rx="16" fill="#FAFAFC" stroke="#E0E3E6" stroke-width="2"/><text x="1490" y="1482.4" fill="#223347" font-size="28" font-weight="600" font-family="Heiti SC,Microsoft YaHei,Noto Sans CJK SC,sans-serif">按共同交接流程继续</text><text x="1490" y="1522.9" fill="#667588" font-size="24" font-weight="400" font-family="Heiti SC,Microsoft YaHei,Noto Sans CJK SC,sans-serif">在 Codex 中讨论；回来记下一步</text><rect x="86" y="1622" width="1928" height="182" rx="22" fill="#FFFFFF" stroke="#E0E3E6" stroke-width="2"/><text x="114" y="1671.8" fill="#223347" font-size="32" font-weight="600" font-family="Heiti SC,Microsoft YaHei,Noto Sans CJK SC,sans-serif">论文写作</text><text x="114" y="1719.0" fill="#7464CC" font-size="23" font-weight="400" font-family="Heiti SC,Microsoft YaHei,Noto Sans CJK SC,sans-serif">研究任务 → 论文写作</text><rect x="460" y="1640" width="477" height="128" rx="16" fill="#FAFAFC" stroke="#E0E3E6" stroke-width="2"/><text x="480" y="1680.4" fill="#223347" font-size="28" font-weight="600" font-family="Heiti SC,Microsoft YaHei,Noto Sans CJK SC,sans-serif">说明这次改哪里</text><text x="480" y="1720.9" fill="#667588" font-size="24" font-weight="400" font-family="Heiti SC,Microsoft YaHei,Noto Sans CJK SC,sans-serif">起草 / 修改 / 润色 / 回复审稿意见</text><path d="M941,1704 H956 M944,1696 L956,1704 L944,1712" stroke="#7464CC" stroke-width="3" fill="none"/><rect x="965" y="1640" width="477" height="128" rx="16" fill="#FAFAFC" stroke="#E0E3E6" stroke-width="2"/><text x="985" y="1680.4" fill="#223347" font-size="28" font-weight="600" font-family="Heiti SC,Microsoft YaHei,Noto Sans CJK SC,sans-serif">补充稿件与修改目标</text><text x="985" y="1720.9" fill="#667588" font-size="24" font-weight="400" font-family="Heiti SC,Microsoft YaHei,Noto Sans CJK SC,sans-serif">注明章节、语言和相关真实证据</text><path d="M1446,1704 H1461 M1449,1696 L1461,1704 L1449,1712" stroke="#7464CC" stroke-width="3" fill="none"/><rect x="1470" y="1640" width="477" height="128" rx="16" fill="#FAFAFC" stroke="#E0E3E6" stroke-width="2"/><text x="1490" y="1680.4" fill="#223347" font-size="28" font-weight="600" font-family="Heiti SC,Microsoft YaHei,Noto Sans CJK SC,sans-serif">准备写作启动语</text><text x="1490" y="1720.9" fill="#667588" font-size="24" font-weight="400" font-family="Heiti SC,Microsoft YaHei,Noto Sans CJK SC,sans-serif">进入 Codex 提交并协作修改</text><rect x="86" y="1838" width="58" height="58" rx="16" fill="#348578" stroke="#348578" stroke-width="2"/><text x="99" y="1877.1" fill="#FFFFFF" font-size="30" font-weight="600" font-family="Heiti SC,Microsoft YaHei,Noto Sans CJK SC,sans-serif">04</text><text x="163" y="1883.4" fill="#223347" font-size="43" font-weight="600" font-family="Heiti SC,Microsoft YaHei,Noto Sans CJK SC,sans-serif">文献资料：看记录、追线索、做日报</text><text x="163" y="1923.8" fill="#667588" font-size="25" font-weight="400" font-family="Heiti SC,Microsoft YaHei,Noto Sans CJK SC,sans-serif">研究记录、文献、RSS 与历史归档，各自按已确认范围读取。</text><rect x="86" y="1950" width="1928" height="182" rx="22" fill="#FFFFFF" stroke="#E0E3E6" stroke-width="2"/><text x="114" y="1999.8" fill="#223347" font-size="32" font-weight="600" font-family="Heiti SC,Microsoft YaHei,Noto Sans CJK SC,sans-serif">研究记录</text><text x="114" y="2047.0" fill="#348578" font-size="23" font-weight="400" font-family="Heiti SC,Microsoft YaHei,Noto Sans CJK SC,sans-serif">文献资料 → 研究记录</text><rect x="460" y="1968" width="477" height="128" rx="16" fill="#FAFAFC" stroke="#E0E3E6" stroke-width="2"/><text x="480" y="2008.4" fill="#223347" font-size="28" font-weight="600" font-family="Heiti SC,Microsoft YaHei,Noto Sans CJK SC,sans-serif">先连接研究记录范围</text><text x="480" y="2048.9" fill="#667588" font-size="24" font-weight="400" font-family="Heiti SC,Microsoft YaHei,Noto Sans CJK SC,sans-serif">需要时在设置关联已有笔记文件夹</text><path d="M941,2032 H956 M944,2024 L956,2032 L944,2040" stroke="#348578" stroke-width="3" fill="none"/><rect x="965" y="1968" width="477" height="128" rx="16" fill="#FAFAFC" stroke="#E0E3E6" stroke-width="2"/><text x="985" y="2008.4" fill="#223347" font-size="28" font-weight="600" font-family="Heiti SC,Microsoft YaHei,Noto Sans CJK SC,sans-serif">查看记录</text><text x="985" y="2048.9" fill="#667588" font-size="24" font-weight="400" font-family="Heiti SC,Microsoft YaHei,Noto Sans CJK SC,sans-serif">阅读标题、日期、摘要与相对路径</text><path d="M1446,2032 H1461 M1449,2024 L1461,2032 L1449,2040" stroke="#348578" stroke-width="3" fill="none"/><rect x="1470" y="1968" width="477" height="128" rx="16" fill="#FAFAFC" stroke="#E0E3E6" stroke-width="2"/><text x="1490" y="2008.4" fill="#223347" font-size="28" font-weight="600" font-family="Heiti SC,Microsoft YaHei,Noto Sans CJK SC,sans-serif">需要编辑时回 Obsidian</text><text x="1490" y="2048.9" fill="#667588" font-size="24" font-weight="400" font-family="Heiti SC,Microsoft YaHei,Noto Sans CJK SC,sans-serif">维护原笔记，再重新进入本页查看</text><rect x="86" y="2148" width="1928" height="402" rx="20" fill="#FFFFFF" stroke="#E0E3E6" stroke-width="2"/><text x="114" y="2198.8" fill="#223347" font-size="32" font-weight="600" font-family="Heiti SC,Microsoft YaHei,Noto Sans CJK SC,sans-serif">文献与信息源</text><text x="114" y="2246.9" fill="#348578" font-size="24" font-weight="400" font-family="Heiti SC,Microsoft YaHei,Noto Sans CJK SC,sans-serif">文献资料</text><text x="460" y="2194.8" fill="#348578" font-size="25" font-weight="600" font-family="Heiti SC,Microsoft YaHei,Noto Sans CJK SC,sans-serif">文献笔记</text><rect x="612" y="2170" width="438" height="87" rx="13" fill="#F4F8F6" stroke="#E0E3E6" stroke-width="2"/><text x="630" y="2214.8" fill="#223347" font-size="25" font-weight="400" font-family="Heiti SC,Microsoft YaHei,Noto Sans CJK SC,sans-serif">授权文献范围</text><path d="M1052,2213 H1062 M1050,2205 L1062,2213 L1050,2221" stroke="#348578" stroke-width="3" fill="none"/><rect x="1071" y="2170" width="438" height="87" rx="13" fill="#F4F8F6" stroke="#E0E3E6" stroke-width="2"/><text x="1089" y="2214.8" fill="#223347" font-size="25" font-weight="400" font-family="Heiti SC,Microsoft YaHei,Noto Sans CJK SC,sans-serif">查看阅读笔记摘要</text><path d="M1511,2213 H1521 M1509,2205 L1521,2213 L1509,2221" stroke="#348578" stroke-width="3" fill="none"/><rect x="1530" y="2170" width="438" height="87" rx="13" fill="#F4F8F6" stroke="#E0E3E6" stroke-width="2"/><text x="1548" y="2214.8" fill="#223347" font-size="25" font-weight="400" font-family="Heiti SC,Microsoft YaHei,Noto Sans CJK SC,sans-serif">按路径回 Obsidian / 原文深读</text><text x="460" y="2315.8" fill="#348578" font-size="25" font-weight="600" font-family="Heiti SC,Microsoft YaHei,Noto Sans CJK SC,sans-serif">RSS 线索</text><rect x="612" y="2291" width="438" height="87" rx="13" fill="#F4F8F6" stroke="#E0E3E6" stroke-width="2"/><text x="630" y="2335.8" fill="#223347" font-size="25" font-weight="400" font-family="Heiti SC,Microsoft YaHei,Noto Sans CJK SC,sans-serif">在 Obsidian 更新 RSS</text><path d="M1052,2334 H1062 M1050,2326 L1062,2334 L1050,2342" stroke="#348578" stroke-width="3" fill="none"/><rect x="1071" y="2291" width="438" height="87" rx="13" fill="#F4F8F6" stroke="#E0E3E6" stroke-width="2"/><text x="1089" y="2335.8" fill="#223347" font-size="25" font-weight="400" font-family="Heiti SC,Microsoft YaHei,Noto Sans CJK SC,sans-serif">回工作台搜索 / 筛选线索</text><path d="M1511,2334 H1521 M1509,2326 L1521,2334 L1509,2342" stroke="#348578" stroke-width="3" fill="none"/><rect x="1530" y="2291" width="438" height="87" rx="13" fill="#F4F8F6" stroke="#E0E3E6" stroke-width="2"/><text x="1548" y="2335.8" fill="#223347" font-size="25" font-weight="400" font-family="Heiti SC,Microsoft YaHei,Noto Sans CJK SC,sans-serif">点击标题，打开来源阅读</text><text x="460" y="2436.8" fill="#348578" font-size="25" font-weight="600" font-family="Heiti SC,Microsoft YaHei,Noto Sans CJK SC,sans-serif">文献脉络</text><rect x="612" y="2412" width="438" height="87" rx="13" fill="#F4F8F6" stroke="#E0E3E6" stroke-width="2"/><text x="630" y="2456.8" fill="#223347" font-size="25" font-weight="400" font-family="Heiti SC,Microsoft YaHei,Noto Sans CJK SC,sans-serif">输入公开论文 PMID</text><path d="M1052,2455 H1062 M1050,2447 L1062,2455 L1050,2463" stroke="#348578" stroke-width="3" fill="none"/><rect x="1071" y="2412" width="438" height="87" rx="13" fill="#F4F8F6" stroke="#E0E3E6" stroke-width="2"/><text x="1089" y="2456.8" fill="#223347" font-size="25" font-weight="400" font-family="Heiti SC,Microsoft YaHei,Noto Sans CJK SC,sans-serif">点击“打开图谱”</text><path d="M1511,2455 H1521 M1509,2447 L1521,2455 L1509,2463" stroke="#348578" stroke-width="3" fill="none"/><rect x="1530" y="2412" width="438" height="87" rx="13" fill="#F4F8F6" stroke="#E0E3E6" stroke-width="2"/><text x="1548" y="2456.8" fill="#223347" font-size="25" font-weight="400" font-family="Heiti SC,Microsoft YaHei,Noto Sans CJK SC,sans-serif">在 PubMed 图谱探索相关论文</text><text x="460" y="2544.1" fill="#667588" font-size="22" font-weight="400" font-family="Heiti SC,Microsoft YaHei,Noto Sans CJK SC,sans-serif">RSS 在工作台只读已有缓存；这里不刷新订阅，也不自动获取全文。</text><rect x="86" y="2566" width="1928" height="404" rx="20" fill="#FFFFFF" stroke="#E0E3E6" stroke-width="2"/><text x="114" y="2616.8" fill="#223347" font-size="32" font-weight="600" font-family="Heiti SC,Microsoft YaHei,Noto Sans CJK SC,sans-serif">科研日报</text><text x="114" y="2664.9" fill="#348578" font-size="24" font-weight="400" font-family="Heiti SC,Microsoft YaHei,Noto Sans CJK SC,sans-serif">文献资料 → 科研日报</text><text x="460" y="2612.8" fill="#348578" font-size="25" font-weight="600" font-family="Heiti SC,Microsoft YaHei,Noto Sans CJK SC,sans-serif">做今天</text><rect x="612" y="2588" width="438" height="87" rx="13" fill="#F4F8F6" stroke="#E0E3E6" stroke-width="2"/><text x="630" y="2626.8" fill="#223347" font-size="25" font-weight="400" font-family="Heiti SC,Microsoft YaHei,Noto Sans CJK SC,sans-serif">点击“制作今日日报”</text><path d="M1052,2631 H1062 M1050,2623 L1062,2631 L1050,2639" stroke="#348578" stroke-width="3" fill="none"/><rect x="1071" y="2588" width="438" height="87" rx="13" fill="#F4F8F6" stroke="#E0E3E6" stroke-width="2"/><text x="1089" y="2626.8" fill="#223347" font-size="25" font-weight="400" font-family="Heiti SC,Microsoft YaHei,Noto Sans CJK SC,sans-serif">交接到 Codex，确认研究方向与输</text><text x="1089" y="2660.8" fill="#223347" font-size="25" font-weight="400" font-family="Heiti SC,Microsoft YaHei,Noto Sans CJK SC,sans-serif">出</text><path d="M1511,2631 H1521 M1509,2623 L1521,2631 L1509,2639" stroke="#348578" stroke-width="3" fill="none"/><rect x="1530" y="2588" width="438" height="87" rx="13" fill="#F4F8F6" stroke="#E0E3E6" stroke-width="2"/><text x="1548" y="2626.8" fill="#223347" font-size="25" font-weight="400" font-family="Heiti SC,Microsoft YaHei,Noto Sans CJK SC,sans-serif">生成后返回 → 刷新日报</text><text x="460" y="2733.8" fill="#348578" font-size="25" font-weight="600" font-family="Heiti SC,Microsoft YaHei,Noto Sans CJK SC,sans-serif">自动化</text><rect x="612" y="2709" width="438" height="87" rx="13" fill="#F4F8F6" stroke="#E0E3E6" stroke-width="2"/><text x="630" y="2747.8" fill="#223347" font-size="25" font-weight="400" font-family="Heiti SC,Microsoft YaHei,Noto Sans CJK SC,sans-serif">先选每天运行时间</text><path d="M1052,2752 H1062 M1050,2744 L1062,2752 L1050,2760" stroke="#348578" stroke-width="3" fill="none"/><rect x="1071" y="2709" width="438" height="87" rx="13" fill="#F4F8F6" stroke="#E0E3E6" stroke-width="2"/><text x="1089" y="2747.8" fill="#223347" font-size="25" font-weight="400" font-family="Heiti SC,Microsoft YaHei,Noto Sans CJK SC,sans-serif">在 Codex 中设置 / 开启；或请求暂</text><text x="1089" y="2781.8" fill="#223347" font-size="25" font-weight="400" font-family="Heiti SC,Microsoft YaHei,Noto Sans CJK SC,sans-serif">停</text><path d="M1511,2752 H1521 M1509,2744 L1521,2752 L1509,2760" stroke="#348578" stroke-width="3" fill="none"/><rect x="1530" y="2709" width="438" height="87" rx="13" fill="#F4F8F6" stroke="#E0E3E6" stroke-width="2"/><text x="1548" y="2747.8" fill="#223347" font-size="25" font-weight="400" font-family="Heiti SC,Microsoft YaHei,Noto Sans CJK SC,sans-serif">在 Codex 确认实际开关状态</text><text x="460" y="2854.8" fill="#348578" font-size="25" font-weight="600" font-family="Heiti SC,Microsoft YaHei,Noto Sans CJK SC,sans-serif">看与分享</text><rect x="612" y="2830" width="438" height="87" rx="13" fill="#F4F8F6" stroke="#E0E3E6" stroke-width="2"/><text x="630" y="2868.8" fill="#223347" font-size="25" font-weight="400" font-family="Heiti SC,Microsoft YaHei,Noto Sans CJK SC,sans-serif">选日报文件夹 / 导入文件</text><path d="M1052,2873 H1062 M1050,2865 L1062,2873 L1050,2881" stroke="#348578" stroke-width="3" fill="none"/><rect x="1071" y="2830" width="438" height="87" rx="13" fill="#F4F8F6" stroke="#E0E3E6" stroke-width="2"/><text x="1089" y="2868.8" fill="#223347" font-size="25" font-weight="400" font-family="Heiti SC,Microsoft YaHei,Noto Sans CJK SC,sans-serif">选择日期 → 查看摘要与来源</text><path d="M1511,2873 H1521 M1509,2865 L1521,2873 L1509,2881" stroke="#348578" stroke-width="3" fill="none"/><rect x="1530" y="2830" width="438" height="87" rx="13" fill="#F4F8F6" stroke="#E0E3E6" stroke-width="2"/><text x="1548" y="2868.8" fill="#223347" font-size="25" font-weight="400" font-family="Heiti SC,Microsoft YaHei,Noto Sans CJK SC,sans-serif">制作分享长图 → 保存 PNG</text><text x="460" y="2963.1" fill="#667588" font-size="22" font-weight="400" font-family="Heiti SC,Microsoft YaHei,Noto Sans CJK SC,sans-serif">日报文件夹是单独连接；若要求读取权限，按页面提示确认。工作台不显示自动化实时开关。</text><rect x="86" y="2986" width="1928" height="282" rx="20" fill="#FFFFFF" stroke="#E0E3E6" stroke-width="2"/><text x="114" y="3036.8" fill="#223347" font-size="32" font-weight="600" font-family="Heiti SC,Microsoft YaHei,Noto Sans CJK SC,sans-serif">历史归档</text><text x="114" y="3084.9" fill="#348578" font-size="24" font-weight="400" font-family="Heiti SC,Microsoft YaHei,Noto Sans CJK SC,sans-serif">文献资料 → 历史归档</text><text x="460" y="3032.8" fill="#348578" font-size="25" font-weight="600" font-family="Heiti SC,Microsoft YaHei,Noto Sans CJK SC,sans-serif">查看</text><rect x="612" y="3008" width="438" height="87" rx="13" fill="#F4F8F6" stroke="#E0E3E6" stroke-width="2"/><text x="630" y="3046.8" fill="#223347" font-size="25" font-weight="400" font-family="Heiti SC,Microsoft YaHei,Noto Sans CJK SC,sans-serif">开启“查看历史归档”范围</text><path d="M1052,3051 H1062 M1050,3043 L1062,3051 L1050,3059" stroke="#348578" stroke-width="3" fill="none"/><rect x="1071" y="3008" width="438" height="87" rx="13" fill="#F4F8F6" stroke="#E0E3E6" stroke-width="2"/><text x="1089" y="3046.8" fill="#223347" font-size="25" font-weight="400" font-family="Heiti SC,Microsoft YaHei,Noto Sans CJK SC,sans-serif">进入页面，浏览现有归档</text><path d="M1511,3051 H1521 M1509,3043 L1521,3051 L1509,3059" stroke="#348578" stroke-width="3" fill="none"/><rect x="1530" y="3008" width="438" height="87" rx="13" fill="#F4F8F6" stroke="#E0E3E6" stroke-width="2"/><text x="1548" y="3046.8" fill="#223347" font-size="25" font-weight="400" font-family="Heiti SC,Microsoft YaHei,Noto Sans CJK SC,sans-serif">按路径回 Obsidian 打开</text><text x="460" y="3153.8" fill="#348578" font-size="25" font-weight="600" font-family="Heiti SC,Microsoft YaHei,Noto Sans CJK SC,sans-serif">新建</text><rect x="612" y="3129" width="438" height="87" rx="13" fill="#F4F8F6" stroke="#E0E3E6" stroke-width="2"/><text x="630" y="3167.8" fill="#223347" font-size="25" font-weight="400" font-family="Heiti SC,Microsoft YaHei,Noto Sans CJK SC,sans-serif">开启“新建归档”范围</text><path d="M1052,3172 H1062 M1050,3164 L1062,3172 L1050,3180" stroke="#348578" stroke-width="3" fill="none"/><rect x="1071" y="3129" width="438" height="87" rx="13" fill="#F4F8F6" stroke="#E0E3E6" stroke-width="2"/><text x="1089" y="3167.8" fill="#223347" font-size="25" font-weight="400" font-family="Heiti SC,Microsoft YaHei,Noto Sans CJK SC,sans-serif">填写标题、类型与归档内容</text><path d="M1511,3172 H1521 M1509,3164 L1521,3172 L1509,3180" stroke="#348578" stroke-width="3" fill="none"/><rect x="1530" y="3129" width="438" height="87" rx="13" fill="#F4F8F6" stroke="#E0E3E6" stroke-width="2"/><text x="1548" y="3167.8" fill="#223347" font-size="25" font-weight="400" font-family="Heiti SC,Microsoft YaHei,Noto Sans CJK SC,sans-serif">写入历史归档，保留旧版本</text><text x="460" y="3262.1" fill="#667588" font-size="22" font-weight="400" font-family="Heiti SC,Microsoft YaHei,Noto Sans CJK SC,sans-serif">两个范围分别选择；仅查看旧记录时，不需要开启归档写入。</text><rect x="86" y="3302" width="58" height="58" rx="16" fill="#4B779C" stroke="#4B779C" stroke-width="2"/><text x="99" y="3341.1" fill="#FFFFFF" font-size="30" font-weight="600" font-family="Heiti SC,Microsoft YaHei,Noto Sans CJK SC,sans-serif">05</text><text x="163" y="3347.4" fill="#223347" font-size="43" font-weight="600" font-family="Heiti SC,Microsoft YaHei,Noto Sans CJK SC,sans-serif">汇报制图：从真实材料到可编辑成果</text><text x="163" y="3387.8" fill="#667588" font-size="25" font-weight="400" font-family="Heiti SC,Microsoft YaHei,Noto Sans CJK SC,sans-serif">先说明用途与要讨论的问题，已有证据和不确定关系分开填写。</text><rect x="86" y="3414" width="1928" height="188" rx="22" fill="#FFFFFF" stroke="#E0E3E6" stroke-width="2"/><text x="114" y="3463.8" fill="#223347" font-size="32" font-weight="600" font-family="Heiti SC,Microsoft YaHei,Noto Sans CJK SC,sans-serif">科研 PPT</text><text x="114" y="3511.0" fill="#4B779C" font-size="23" font-weight="400" font-family="Heiti SC,Microsoft YaHei,Noto Sans CJK SC,sans-serif">汇报制图 → 科研 PPT</text><rect x="460" y="3432" width="477" height="128" rx="16" fill="#FAFAFC" stroke="#E0E3E6" stroke-width="2"/><text x="480" y="3472.4" fill="#223347" font-size="28" font-weight="600" font-family="Heiti SC,Microsoft YaHei,Noto Sans CJK SC,sans-serif">整理本次汇报内容</text><text x="480" y="3512.9" fill="#667588" font-size="24" font-weight="400" font-family="Heiti SC,Microsoft YaHei,Noto Sans CJK SC,sans-serif">选择形式、目标、听众与时长；可插入填</text><text x="480" y="3545.9" fill="#667588" font-size="24" font-weight="400" font-family="Heiti SC,Microsoft YaHei,Noto Sans CJK SC,sans-serif">空框架</text><path d="M941,3496 H956 M944,3488 L956,3496 L944,3504" stroke="#4B779C" stroke-width="3" fill="none"/><rect x="965" y="3432" width="477" height="128" rx="16" fill="#FAFAFC" stroke="#E0E3E6" stroke-width="2"/><text x="985" y="3472.4" fill="#223347" font-size="28" font-weight="600" font-family="Heiti SC,Microsoft YaHei,Noto Sans CJK SC,sans-serif">选模板与单位 Logo</text><text x="985" y="3512.9" fill="#667588" font-size="24" font-weight="400" font-family="Heiti SC,Microsoft YaHei,Noto Sans CJK SC,sans-serif">四套版式；海军军医大学 / 复旦大学上海</text><text x="985" y="3545.9" fill="#667588" font-size="24" font-weight="400" font-family="Heiti SC,Microsoft YaHei,Noto Sans CJK SC,sans-serif">医学院 / 自备</text><path d="M1446,3496 H1461 M1449,3488 L1461,3496 L1449,3504" stroke="#4B779C" stroke-width="3" fill="none"/><rect x="1470" y="3432" width="477" height="128" rx="16" fill="#FAFAFC" stroke="#E0E3E6" stroke-width="2"/><text x="1490" y="3472.4" fill="#223347" font-size="28" font-weight="600" font-family="Heiti SC,Microsoft YaHei,Noto Sans CJK SC,sans-serif">准备 PPT 启动语</text><text x="1490" y="3512.9" fill="#667588" font-size="24" font-weight="400" font-family="Heiti SC,Microsoft YaHei,Noto Sans CJK SC,sans-serif">按共同交接流程，在 Codex 制作可编辑 </text><text x="1490" y="3545.9" fill="#667588" font-size="24" font-weight="400" font-family="Heiti SC,Microsoft YaHei,Noto Sans CJK SC,sans-serif">PPT</text><text x="460" y="3590.1" fill="#667588" font-size="22" font-weight="400" font-family="Heiti SC,Microsoft YaHei,Noto Sans CJK SC,sans-serif">模板可下载；自备 Logo 需在 Codex 附上透明底 PNG / SVG。引导项不确定时可留空。</text><rect x="86" y="3618" width="1928" height="182" rx="22" fill="#FFFFFF" stroke="#E0E3E6" stroke-width="2"/><text x="114" y="3667.8" fill="#223347" font-size="32" font-weight="600" font-family="Heiti SC,Microsoft YaHei,Noto Sans CJK SC,sans-serif">组会准备 / 复盘</text><text x="114" y="3715.0" fill="#4B779C" font-size="23" font-weight="400" font-family="Heiti SC,Microsoft YaHei,Noto Sans CJK SC,sans-serif">汇报制图 → 组会准备 / 复盘</text><rect x="460" y="3636" width="477" height="128" rx="16" fill="#FAFAFC" stroke="#E0E3E6" stroke-width="2"/><text x="480" y="3676.4" fill="#223347" font-size="28" font-weight="600" font-family="Heiti SC,Microsoft YaHei,Noto Sans CJK SC,sans-serif">选择准备或复盘</text><text x="480" y="3716.9" fill="#667588" font-size="24" font-weight="400" font-family="Heiti SC,Microsoft YaHei,Noto Sans CJK SC,sans-serif">准备：讨论目标；复盘：真实讨论内容</text><path d="M941,3700 H956 M944,3692 L956,3700 L944,3708" stroke="#4B779C" stroke-width="3" fill="none"/><rect x="965" y="3636" width="477" height="128" rx="16" fill="#FAFAFC" stroke="#E0E3E6" stroke-width="2"/><text x="985" y="3676.4" fill="#223347" font-size="28" font-weight="600" font-family="Heiti SC,Microsoft YaHei,Noto Sans CJK SC,sans-serif">补充问题与行动项</text><text x="985" y="3716.9" fill="#667588" font-size="24" font-weight="400" font-family="Heiti SC,Microsoft YaHei,Noto Sans CJK SC,sans-serif">写已决定、待定事项及后续安排</text><path d="M1446,3700 H1461 M1449,3692 L1461,3700 L1449,3708" stroke="#4B779C" stroke-width="3" fill="none"/><rect x="1470" y="3636" width="477" height="128" rx="16" fill="#FAFAFC" stroke="#E0E3E6" stroke-width="2"/><text x="1490" y="3676.4" fill="#223347" font-size="28" font-weight="600" font-family="Heiti SC,Microsoft YaHei,Noto Sans CJK SC,sans-serif">准备组会启动语</text><text x="1490" y="3716.9" fill="#667588" font-size="24" font-weight="400" font-family="Heiti SC,Microsoft YaHei,Noto Sans CJK SC,sans-serif">进入 Codex 整理提纲或复盘记录</text><rect x="86" y="3816" width="1928" height="182" rx="22" fill="#FFFFFF" stroke="#E0E3E6" stroke-width="2"/><text x="114" y="3865.8" fill="#223347" font-size="32" font-weight="600" font-family="Heiti SC,Microsoft YaHei,Noto Sans CJK SC,sans-serif">科研机制图</text><text x="114" y="3913.0" fill="#4B779C" font-size="23" font-weight="400" font-family="Heiti SC,Microsoft YaHei,Noto Sans CJK SC,sans-serif">汇报制图 → 科研机制图</text><rect x="460" y="3834" width="477" height="128" rx="16" fill="#FAFAFC" stroke="#E0E3E6" stroke-width="2"/><text x="480" y="3874.4" fill="#223347" font-size="28" font-weight="600" font-family="Heiti SC,Microsoft YaHei,Noto Sans CJK SC,sans-serif">说明核心发现与用途</text><text x="480" y="3914.9" fill="#667588" font-size="24" font-weight="400" font-family="Heiti SC,Microsoft YaHei,Noto Sans CJK SC,sans-serif">补充节点、关系方向和来源 / 证据</text><path d="M941,3898 H956 M944,3890 L956,3898 L944,3906" stroke="#4B779C" stroke-width="3" fill="none"/><rect x="965" y="3834" width="477" height="128" rx="16" fill="#FAFAFC" stroke="#E0E3E6" stroke-width="2"/><text x="985" y="3874.4" fill="#223347" font-size="28" font-weight="600" font-family="Heiti SC,Microsoft YaHei,Noto Sans CJK SC,sans-serif">准备机制图启动语</text><text x="985" y="3914.9" fill="#667588" font-size="24" font-weight="400" font-family="Heiti SC,Microsoft YaHei,Noto Sans CJK SC,sans-serif">可从 PPT 进入；两个任务分别保存</text><path d="M1446,3898 H1461 M1449,3890 L1461,3898 L1449,3906" stroke="#4B779C" stroke-width="3" fill="none"/><rect x="1470" y="3834" width="477" height="128" rx="16" fill="#FAFAFC" stroke="#E0E3E6" stroke-width="2"/><text x="1490" y="3874.4" fill="#223347" font-size="28" font-weight="600" font-family="Heiti SC,Microsoft YaHei,Noto Sans CJK SC,sans-serif">在 Codex 确认逻辑并绘图</text><text x="1490" y="3914.9" fill="#667588" font-size="24" font-weight="400" font-family="Heiti SC,Microsoft YaHei,Noto Sans CJK SC,sans-serif">区分证据、推断与假说，检查可编辑图</text><rect x="86" y="4032" width="58" height="58" rx="16" fill="#7464CC" stroke="#7464CC" stroke-width="2"/><text x="99" y="4071.1" fill="#FFFFFF" font-size="30" font-weight="600" font-family="Heiti SC,Microsoft YaHei,Noto Sans CJK SC,sans-serif">06</text><text x="163" y="4077.4" fill="#223347" font-size="43" font-weight="600" font-family="Heiti SC,Microsoft YaHei,Noto Sans CJK SC,sans-serif">成果预览：在任务旁看结果、提修改</text><text x="163" y="4117.8" fill="#667588" font-size="25" font-weight="400" font-family="Heiti SC,Microsoft YaHei,Noto Sans CJK SC,sans-serif">首次到 设置 → 成果与预览 选择输出目录；桌面版记住连接，不用每天重选。</text><rect x="86" y="4144" width="1928" height="188" rx="22" fill="#FFFFFF" stroke="#E0E3E6" stroke-width="2"/><text x="114" y="4193.8" fill="#223347" font-size="32" font-weight="600" font-family="Heiti SC,Microsoft YaHei,Noto Sans CJK SC,sans-serif">查看与修改成果</text><text x="114" y="4241.0" fill="#7464CC" font-size="23" font-weight="400" font-family="Heiti SC,Microsoft YaHei,Noto Sans CJK SC,sans-serif">各任务页面 → 本任务成果</text><rect x="460" y="4162" width="477" height="128" rx="16" fill="#FAFAFC" stroke="#E0E3E6" stroke-width="2"/><text x="480" y="4202.4" fill="#223347" font-size="28" font-weight="600" font-family="Heiti SC,Microsoft YaHei,Noto Sans CJK SC,sans-serif">按启动语交付成果</text><text x="480" y="4242.9" fill="#667588" font-size="24" font-weight="400" font-family="Heiti SC,Microsoft YaHei,Noto Sans CJK SC,sans-serif">Codex 保存原件、同版本预览与成果清</text><text x="480" y="4275.9" fill="#667588" font-size="24" font-weight="400" font-family="Heiti SC,Microsoft YaHei,Noto Sans CJK SC,sans-serif">单</text><path d="M941,4226 H956 M944,4218 L956,4226 L944,4234" stroke="#7464CC" stroke-width="3" fill="none"/><rect x="965" y="4162" width="477" height="128" rx="16" fill="#FAFAFC" stroke="#E0E3E6" stroke-width="2"/><text x="985" y="4202.4" fill="#223347" font-size="28" font-weight="600" font-family="Heiti SC,Microsoft YaHei,Noto Sans CJK SC,sans-serif">回任务点击成果卡</text><text x="985" y="4242.9" fill="#667588" font-size="24" font-weight="400" font-family="Heiti SC,Microsoft YaHei,Noto Sans CJK SC,sans-serif">右侧打开；标签切换、翻页、缩放和返回</text><text x="985" y="4275.9" fill="#667588" font-size="24" font-weight="400" font-family="Heiti SC,Microsoft YaHei,Noto Sans CJK SC,sans-serif">任务</text><path d="M1446,4226 H1461 M1449,4218 L1461,4226 L1449,4234" stroke="#7464CC" stroke-width="3" fill="none"/><rect x="1470" y="4162" width="477" height="128" rx="16" fill="#FAFAFC" stroke="#E0E3E6" stroke-width="2"/><text x="1490" y="4202.4" fill="#223347" font-size="28" font-weight="600" font-family="Heiti SC,Microsoft YaHei,Noto Sans CJK SC,sans-serif">写意见 → 继续 Codex 修改</text><text x="1490" y="4242.9" fill="#667588" font-size="24" font-weight="400" font-family="Heiti SC,Microsoft YaHei,Noto Sans CJK SC,sans-serif">带文件、版本与页码；粘贴提交，保留旧</text><text x="1490" y="4275.9" fill="#667588" font-size="24" font-weight="400" font-family="Heiti SC,Microsoft YaHei,Noto Sans CJK SC,sans-serif">版</text><text x="460" y="4320.1" fill="#667588" font-size="22" font-weight="400" font-family="Heiti SC,Microsoft YaHei,Noto Sans CJK SC,sans-serif">PPT / Word 看配套 PDF；已有成果可导入；缺预览时可请求 Codex 生成。</text><text x="100" y="4368.9" fill="#667588" font-size="24" font-weight="400" font-family="Heiti SC,Microsoft YaHei,Noto Sans CJK SC,sans-serif">重开恢复任务、预览标签和意见草稿。文件新增时点刷新；打开原件 / 保存副本不会删除旧文件。</text><rect x="86" y="4409" width="58" height="58" rx="16" fill="#9B7752" stroke="#9B7752" stroke-width="2"/><text x="99" y="4448.1" fill="#FFFFFF" font-size="30" font-weight="600" font-family="Heiti SC,Microsoft YaHei,Noto Sans CJK SC,sans-serif">07</text><text x="163" y="4454.4" fill="#223347" font-size="43" font-weight="600" font-family="Heiti SC,Microsoft YaHei,Noto Sans CJK SC,sans-serif">做完后：留下成果位置和下一步</text><text x="163" y="4494.8" fill="#667588" font-size="25" font-weight="400" font-family="Heiti SC,Microsoft YaHei,Noto Sans CJK SC,sans-serif">不用等整个课题完成；任何阶段都可以记录，方便下次接着做。</text><rect x="86" y="4521" width="617" height="126" rx="16" fill="#FAFAFC" stroke="#E0E3E6" stroke-width="2"/><text x="106" y="4561.4" fill="#223347" font-size="28" font-weight="600" font-family="Heiti SC,Microsoft YaHei,Noto Sans CJK SC,sans-serif">回到研究任务卡</text><text x="106" y="4601.9" fill="#667588" font-size="24" font-weight="400" font-family="Heiti SC,Microsoft YaHei,Noto Sans CJK SC,sans-serif">更新阶段、任务状态与下一步</text><path d="M706,4584 H732 M720,4576 L732,4584 L720,4592" stroke="#9B7752" stroke-width="3" fill="none"/><rect x="741" y="4521" width="617" height="126" rx="16" fill="#FAFAFC" stroke="#E0E3E6" stroke-width="2"/><text x="761" y="4561.4" fill="#223347" font-size="28" font-weight="600" font-family="Heiti SC,Microsoft YaHei,Noto Sans CJK SC,sans-serif">成果与来源 → 添加记录</text><text x="761" y="4601.9" fill="#667588" font-size="24" font-weight="400" font-family="Heiti SC,Microsoft YaHei,Noto Sans CJK SC,sans-serif">填写文件位置、版本与来源定位</text><path d="M1361,4584 H1387 M1375,4576 L1387,4584 L1375,4592" stroke="#9B7752" stroke-width="3" fill="none"/><rect x="1396" y="4521" width="617" height="126" rx="16" fill="#FAFAFC" stroke="#E0E3E6" stroke-width="2"/><text x="1416" y="4561.4" fill="#223347" font-size="28" font-weight="600" font-family="Heiti SC,Microsoft YaHei,Noto Sans CJK SC,sans-serif">保存阶段记录到 Obsidian</text><text x="1416" y="4601.9" fill="#667588" font-size="24" font-weight="400" font-family="Heiti SC,Microsoft YaHei,Noto Sans CJK SC,sans-serif">先开启新建归档；每次新建一份</text><text x="100" y="4690.9" fill="#667588" font-size="24" font-weight="400" font-family="Heiti SC,Microsoft YaHei,Noto Sans CJK SC,sans-serif">保存的是任务内容和成果索引；实际稿件、PPT 与科研图请存放在自己的研究目录。</text><rect x="86" y="4728" width="946" height="208" rx="20" fill="#FFFFFF" stroke="#E0E3E6" stroke-width="2"/><text x="110" y="4777.0" fill="#223347" font-size="31" font-weight="600" font-family="Heiti SC,Microsoft YaHei,Noto Sans CJK SC,sans-serif">返回与历史恢复</text><text x="110" y="4823.8" fill="#667588" font-size="25" font-weight="400" font-family="Heiti SC,Microsoft YaHei,Noto Sans CJK SC,sans-serif">返回上个工作区：点击页面“返回”或“全部工作”。</text><text x="110" y="4861.8" fill="#667588" font-size="25" font-weight="400" font-family="Heiti SC,Microsoft YaHei,Noto Sans CJK SC,sans-serif">恢复历史状态：设置 → 任务备份 → 查看可恢复备份</text><text x="110" y="4899.8" fill="#667588" font-size="25" font-weight="400" font-family="Heiti SC,Microsoft YaHei,Noto Sans CJK SC,sans-serif">→ 选择时间 → 恢复这份备份。恢复前保留当前版本。</text><rect x="1060" y="4728" width="954" height="208" rx="20" fill="#FFFFFF" stroke="#E0E3E6" stroke-width="2"/><text x="1084" y="4777.0" fill="#223347" font-size="31" font-weight="600" font-family="Heiti SC,Microsoft YaHei,Noto Sans CJK SC,sans-serif">交接失败或连接异常</text><text x="1084" y="4823.8" fill="#667588" font-size="25" font-weight="400" font-family="Heiti SC,Microsoft YaHei,Noto Sans CJK SC,sans-serif">打开或复制失败：启动语仍保留，继续原对话或手动复制。</text><text x="1084" y="4861.8" fill="#667588" font-size="25" font-weight="400" font-family="Heiti SC,Microsoft YaHei,Noto Sans CJK SC,sans-serif">找不到原知识库：设置 → 知识库与授权，核对实际路径。</text><text x="1084" y="4899.8" fill="#667588" font-size="25" font-weight="400" font-family="Heiti SC,Microsoft YaHei,Noto Sans CJK SC,sans-serif">Codex / Jev 不可用：到对应设置页刷新或重新验证。</text><rect x="86" y="4960" width="1928" height="72" rx="16" fill="#EEEAF9" stroke="#EEEAF9" stroke-width="2"/><text x="110" y="5006.5" fill="#7464CC" font-size="27" font-weight="600" font-family="Heiti SC,Microsoft YaHei,Noto Sans CJK SC,sans-serif">检查更新：顶部“检查更新” → 下载新版 Windows 安装包 → 运行更新 → 从桌面图标打开。</text><text x="86" y="5080.0" fill="#667588" font-size="23" font-weight="400" font-family="Heiti SC,Microsoft YaHei,Noto Sans CJK SC,sans-serif">按本机最新功能绘制；龚博士电脑上的功能以已发布安装版为准。自动备份、接续与成果预览需发布后更新使用。</text><text x="86" y="5125.8" fill="#223347" font-size="25" font-weight="600" font-family="Heiti SC,Microsoft YaHei,Noto Sans CJK SC,sans-serif">工作台帮你组织与接续，Codex 帮你协作完成，Obsidian 保存研究记录。</text></svg>